<svg width="193" height="50" viewBox="0 0 193 50" fill="none" xmlns="http://www.w3.org/2000/svg">
<circle cx="22" cy="22" r="22" fill="#F6F6F6"/>
<path d="M23.8 26.6667V15.4667C23.8 15.2089 23.5985 15 23.35 15H13.45C13.2015 15 13 15.2089 13 15.4667V26.6667C13 26.9244 13.2015 27.1333 13.45 27.1333H14.8M23.8 26.6667C23.8 26.9244 23.5985 27.1333 23.35 27.1333H18.4M23.8 26.6667V18.2667C23.8 18.0089 24.0015 17.8 24.25 17.8H27.2136C27.333 17.8 27.4474 17.8492 27.5318 17.9367L30.8682 21.3967C30.9526 21.4842 31 21.6029 31 21.7266V26.6667C31 26.9244 30.7985 27.1333 30.55 27.1333H29.2M23.8 26.6667C23.8 26.9244 24.0015 27.1333 24.25 27.1333H25.6M14.8 27.1333C14.8 28.1643 15.6059 29 16.6 29C17.5941 29 18.4 28.1643 18.4 27.1333M14.8 27.1333C14.8 26.1024 15.6059 25.2667 16.6 25.2667C17.5941 25.2667 18.4 26.1024 18.4 27.1333M25.6 27.1333C25.6 28.1643 26.4059 29 27.4 29C28.3941 29 29.2 28.1643 29.2 27.1333M25.6 27.1333C25.6 26.1024 26.4059 25.2667 27.4 25.2667C28.3941 25.2667 29.2 26.1024 29.2 27.1333" stroke="#3C4242" stroke-width="1.1"/>
<path d="M67.64 18.884H61.592V22.574H67.298V24.176H61.592V29H59.9V17.3H67.64V18.884ZM71.0122 22.25C71.6602 21.116 72.7762 20.612 73.9282 20.594V22.124C72.8122 22.142 71.0122 22.628 71.0122 24.752V29H69.3922V20.72H71.0122V22.25ZM78.8336 20.576C81.2456 20.576 82.8116 22.394 82.8116 24.86V25.328H76.2956C76.4576 26.804 77.5016 27.758 78.9416 27.758C80.1296 27.758 80.8856 27.218 81.2816 26.642L82.4156 27.452C81.6956 28.496 80.4536 29.162 78.9416 29.162C76.4216 29.162 74.7296 27.326 74.7296 24.86C74.7296 22.394 76.3496 20.576 78.8336 20.576ZM78.8336 21.872C77.4116 21.872 76.4936 22.826 76.2956 24.266H81.2996C81.1016 22.88 80.2196 21.872 78.8336 21.872ZM88.5367 20.576C90.9487 20.576 92.5147 22.394 92.5147 24.86V25.328H85.9987C86.1607 26.804 87.2047 27.758 88.6447 27.758C89.8327 27.758 90.5887 27.218 90.9847 26.642L92.1187 27.452C91.3987 28.496 90.1567 29.162 88.6447 29.162C86.1247 29.162 84.4327 27.326 84.4327 24.86C84.4327 22.394 86.0527 20.576 88.5367 20.576ZM88.5367 21.872C87.1147 21.872 86.1967 22.826 85.9987 24.266H91.0027C90.8047 22.88 89.9227 21.872 88.5367 21.872ZM97.5594 27.272L98.6934 26.552C98.9454 27.218 99.9534 27.902 101.159 27.902C102.275 27.902 102.851 27.524 102.851 26.714C102.851 25.796 101.501 25.58 100.763 25.364C100.043 25.148 97.9014 24.698 97.9014 22.952C97.9014 21.332 99.3054 20.54 101.087 20.54C102.797 20.54 103.967 21.314 104.363 22.232L103.265 22.898C103.013 22.358 102.095 21.818 101.033 21.818C100.007 21.818 99.4674 22.232 99.4674 22.88C99.4674 23.744 100.727 23.942 101.465 24.158C102.185 24.374 104.417 24.878 104.417 26.66C104.417 28.334 103.211 29.234 101.141 29.234C99.2154 29.234 97.9734 28.352 97.5594 27.272ZM110.306 20.594C111.908 20.594 113.582 21.512 113.582 23.906V29H111.962V24.14C111.962 22.61 110.882 21.98 109.838 21.98C108.812 21.98 107.75 22.61 107.75 24.14V29H106.13V17.3H107.75V21.728C108.38 20.918 109.352 20.594 110.306 20.594ZM116.7 19.136C116.232 19.136 115.746 18.758 115.746 18.182C115.746 17.588 116.232 17.264 116.7 17.264C117.168 17.264 117.636 17.588 117.636 18.182C117.636 18.758 117.168 19.136 116.7 19.136ZM117.51 29H115.89V20.72H117.51V29ZM124.253 20.594C126.593 20.594 128.267 22.412 128.267 24.878C128.267 27.362 126.593 29.144 124.253 29.144C122.975 29.144 122.021 28.604 121.409 27.74V32.312H119.789V20.72H121.409V22.016C122.021 21.134 122.975 20.594 124.253 20.594ZM124.037 27.614C125.639 27.614 126.683 26.462 126.683 24.878C126.683 23.276 125.639 22.124 124.037 22.124C122.453 22.124 121.409 23.276 121.409 24.878C121.409 26.462 122.453 27.614 124.037 27.614ZM134.624 20.594C136.964 20.594 138.638 22.412 138.638 24.878C138.638 27.362 136.964 29.144 134.624 29.144C133.346 29.144 132.392 28.604 131.78 27.74V32.312H130.16V20.72H131.78V22.016C132.392 21.134 133.346 20.594 134.624 20.594ZM134.408 27.614C136.01 27.614 137.054 26.462 137.054 24.878C137.054 23.276 136.01 22.124 134.408 22.124C132.824 22.124 131.78 23.276 131.78 24.878C131.78 26.462 132.824 27.614 134.408 27.614ZM141.485 19.136C141.017 19.136 140.531 18.758 140.531 18.182C140.531 17.588 141.017 17.264 141.485 17.264C141.953 17.264 142.421 17.588 142.421 18.182C142.421 18.758 141.953 19.136 141.485 19.136ZM142.295 29H140.675V20.72H142.295V29ZM148.75 20.594C150.352 20.594 152.026 21.512 152.026 23.906V29H150.406V24.14C150.406 22.61 149.326 21.98 148.282 21.98C147.256 21.98 146.194 22.61 146.194 24.14V29H144.574V20.72H146.194V21.728C146.824 20.918 147.796 20.594 148.75 20.594ZM160.777 20.72H162.397V28.388C162.397 30.782 160.741 32.456 158.023 32.456C156.565 32.456 155.323 31.88 154.567 30.98L155.629 30.08C156.295 30.8 157.177 31.07 158.023 31.07C159.301 31.07 160.777 30.314 160.777 28.388V27.722C160.165 28.586 159.193 29.144 157.915 29.144C155.593 29.144 153.919 27.326 153.919 24.86C153.919 22.394 155.593 20.594 157.915 20.594C159.193 20.594 160.165 21.134 160.777 22.016V20.72ZM158.131 27.614C159.733 27.614 160.777 26.444 160.777 24.86C160.777 23.258 159.733 22.124 158.131 22.124C156.547 22.124 155.503 23.258 155.503 24.86C155.503 26.444 156.547 27.614 158.131 27.614Z" fill="#3C4242"/>
</svg>
