<?xml version="1.0" standalone="no"?>
<!DOCTYPE svg PUBLIC "-//W3C//DTD SVG 20010904//EN"
 "http://www.w3.org/TR/2001/REC-SVG-20010904/DTD/svg10.dtd">
<svg version="1.0" xmlns="http://www.w3.org/2000/svg"
 width="100.000000pt" height="30.000000pt" viewBox="0 0 289.000000 62.000000"
 preserveAspectRatio="xMidYMid meet">

<g transform="translate(0.000000,62.000000) scale(0.100000,-0.100000)"
fill="#000000" stroke="none">
<path d="M1654 581 c-31 -19 -55 -64 -69 -128 -6 -29 -11 -33 -39 -33 -33 0
-56 -15 -56 -37 0 -8 13 -13 35 -13 21 0 35 -5 35 -12 0 -7 -11 -56 -25 -108
-24 -93 -22 -120 9 -120 26 1 38 21 57 96 43 168 36 154 74 154 38 0 67 23 58
46 -5 12 -15 15 -44 10 l-38 -6 14 47 c8 25 20 50 27 55 22 14 52 4 63 -20 14
-32 49 -26 53 10 8 65 -85 101 -154 59z"/>
<path d="M472 573 c-39 -16 -32 -83 9 -83 55 0 78 46 37 74 -24 17 -26 17 -46
9z"/>
<path d="M163 549 c-121 -59 -194 -233 -138 -326 29 -49 90 -70 157 -54 95 21
148 81 148 165 0 41 -3 46 -26 52 -31 8 -129 -3 -155 -17 -23 -12 -25 -47 -2
-56 9 -3 38 -2 65 4 43 8 48 8 48 -8 0 -25 -55 -76 -89 -84 -30 -6 -69 7 -83
29 -24 35 2 131 50 187 65 75 142 86 142 19 0 -37 33 -50 61 -24 23 21 24 45
4 83 -26 52 -110 66 -182 30z"/>
<path d="M452 462 c-16 -2 -22 -8 -18 -19 3 -8 -5 -60 -19 -116 -14 -56 -27
-110 -29 -120 -3 -12 4 -22 19 -29 31 -14 55 4 55 41 0 14 11 68 24 120 30
116 26 132 -32 123z"/>
<path d="M602 462 c-17 -3 -21 -8 -17 -22 3 -10 -6 -63 -20 -118 -31 -123 -31
-139 -4 -147 28 -9 43 8 63 72 10 28 30 69 45 90 26 36 76 72 86 62 2 -3 -4
-36 -15 -73 -21 -74 -28 -145 -16 -164 10 -17 41 -15 57 4 7 8 14 38 15 66 1
27 12 82 24 121 l22 71 -23 19 c-29 23 -68 17 -122 -19 -22 -14 -36 -21 -33
-15 11 17 -3 48 -22 53 -9 2 -27 2 -40 0z"/>
<path d="M1865 457 c-43 -20 -93 -80 -101 -122 -9 -50 1 -113 21 -135 49 -54
130 -45 188 19 89 99 68 235 -39 247 -21 2 -53 -2 -69 -9z m80 -54 c22 -22 14
-89 -17 -144 -59 -106 -134 -9 -78 101 30 58 65 74 95 43z"/>
<path d="M910 435 c-23 -61 -49 -183 -43 -205 14 -58 69 -83 122 -55 37 19 39
9 11 -52 -22 -49 -59 -66 -89 -39 -33 30 -69 16 -56 -23 13 -42 115 -53 169
-18 13 9 31 33 41 53 22 47 96 344 89 355 -8 14 -41 10 -57 -5 -8 -8 -25 -56
-37 -106 -19 -79 -26 -93 -51 -105 -73 -38 -82 -16 -48 117 11 44 18 87 15 94
-10 25 -55 17 -66 -11z"/>
<path d="M1230 428 c-24 -38 -46 -107 -56 -173 -5 -36 -3 -50 11 -65 25 -28
69 -34 106 -16 29 14 33 14 43 0 8 -10 23 -14 41 -12 28 3 30 6 62 137 19 74
32 140 29 148 -8 21 -44 15 -60 -9 -8 -13 -24 -59 -35 -102 -11 -43 -26 -84
-33 -91 -18 -17 -78 -36 -90 -29 -16 10 1 95 33 161 33 68 31 83 -7 83 -17 0
-31 -10 -44 -32z"/>
<path d="M2097 453 c-4 -3 -3 -11 3 -17 6 -8 -2 -53 -20 -126 -16 -63 -30
-121 -30 -127 0 -8 13 -13 34 -13 l34 0 19 77 c12 54 27 88 46 110 30 34 52
42 59 21 7 -20 58 1 70 28 11 22 9 28 -7 40 -26 19 -55 17 -89 -6 -30 -19 -30
-19 -43 1 -14 18 -62 27 -76 12z"/>
<path d="M2446 450 c-104 -33 -181 -162 -142 -239 37 -70 193 -61 242 14 9 13
13 29 9 35 -11 19 -51 10 -74 -16 -18 -21 -29 -25 -64 -22 -35 3 -43 7 -45 27
-5 35 5 66 34 101 48 57 114 74 114 30 0 -25 16 -33 40 -20 43 23 9 88 -50 95
-19 2 -48 0 -64 -5z"/>
<path d="M2748 450 c-77 -23 -139 -92 -153 -170 -19 -104 87 -151 203 -91 40
21 64 52 54 68 -16 23 -41 21 -68 -8 -25 -26 -35 -30 -74 -27 -37 2 -46 7 -48
24 -3 19 6 25 65 44 100 33 142 57 149 84 15 61 -50 100 -128 76z m57 -50 c4
-6 2 -17 -5 -25 -12 -15 -101 -48 -108 -40 -8 8 27 42 61 59 38 19 44 19 52 6z"/>
</g>
</svg>
