<svg width="219" height="50" viewBox="0 0 219 50" fill="none" xmlns="http://www.w3.org/2000/svg">
<circle cx="22" cy="22" r="22" fill="#F6F6F6"/>
<path d="M15 18.75H30M18 26.25H21M24 26.25H27M17.4 30H27.6C28.4401 30 28.8601 30 29.181 29.7956C29.4632 29.6159 29.6927 29.329 29.8365 28.9762C30 28.5751 30 28.0501 30 27V18C30 16.9499 30 16.4249 29.8365 16.0238C29.6927 15.671 29.4632 15.3841 29.181 15.2044C28.8601 15 28.4401 15 27.6 15H17.4C16.5599 15 16.1399 15 15.819 15.2044C15.5368 15.3841 15.3073 15.671 15.1635 16.0238C15 16.4249 15 16.9499 15 18V27C15 28.0501 15 28.5751 15.1635 28.9762C15.3073 29.329 15.5368 29.6159 15.819 29.7956C16.1399 30 16.5599 30 17.4 30Z" stroke="#3C4242" stroke-width="1.1" stroke-linecap="round"/>
<path d="M59.54 26.462L60.908 25.526C61.304 26.462 62.744 27.524 64.598 27.524C66.398 27.524 67.1 26.84 67.1 25.706C67.1 24.356 64.958 24.014 63.968 23.708C62.906 23.402 59.972 22.88 59.972 20.432C59.972 18.128 61.952 17.084 64.418 17.084C66.614 17.084 68.378 18.218 68.828 19.478L67.46 20.324C67.136 19.55 65.858 18.776 64.238 18.776C62.708 18.776 61.88 19.352 61.88 20.342C61.88 21.62 63.86 21.926 64.94 22.232C65.912 22.538 68.972 23.186 68.972 25.634C68.972 27.974 67.226 29.216 64.418 29.216C61.844 29.216 60.116 27.938 59.54 26.462ZM74.5973 20.576C77.0093 20.576 78.5753 22.394 78.5753 24.86V25.328H72.0593C72.2213 26.804 73.2653 27.758 74.7053 27.758C75.8933 27.758 76.6493 27.218 77.0453 26.642L78.1793 27.452C77.4593 28.496 76.2173 29.162 74.7053 29.162C72.1853 29.162 70.4933 27.326 70.4933 24.86C70.4933 22.394 72.1133 20.576 74.5973 20.576ZM74.5973 21.872C73.1753 21.872 72.2573 22.826 72.0593 24.266H77.0633C76.8653 22.88 75.9833 21.872 74.5973 21.872ZM86.6044 23.15C86.2084 22.592 85.5064 22.124 84.4444 22.124C82.8604 22.124 81.7804 23.258 81.7804 24.86C81.7804 26.444 82.8604 27.614 84.4444 27.614C85.5064 27.614 86.1904 27.164 86.6044 26.606L87.7744 27.47C87.0544 28.514 85.8664 29.162 84.4084 29.162C81.9244 29.162 80.1964 27.344 80.1964 24.86C80.1964 22.358 81.9244 20.576 84.4084 20.576C85.8664 20.576 87.0544 21.224 87.7744 22.25L86.6044 23.15ZM95.316 20.72H96.936V29H95.316V28.01C94.686 28.82 93.714 29.144 92.76 29.144C91.158 29.144 89.484 28.208 89.484 25.814V20.72H91.104V25.58C91.104 27.11 92.184 27.74 93.228 27.74C94.254 27.74 95.316 27.11 95.316 25.58V20.72ZM100.719 22.25C101.367 21.116 102.483 20.612 103.635 20.594V22.124C102.519 22.142 100.719 22.628 100.719 24.752V29H99.0992V20.72H100.719V22.25ZM108.541 20.576C110.953 20.576 112.519 22.394 112.519 24.86V25.328H106.003C106.165 26.804 107.209 27.758 108.649 27.758C109.837 27.758 110.593 27.218 110.989 26.642L112.123 27.452C111.403 28.496 110.161 29.162 108.649 29.162C106.129 29.162 104.437 27.326 104.437 24.86C104.437 22.394 106.057 20.576 108.541 20.576ZM108.541 21.872C107.119 21.872 106.201 22.826 106.003 24.266H111.007C110.809 22.88 109.927 21.872 108.541 21.872ZM122.477 20.594C124.817 20.594 126.491 22.412 126.491 24.878C126.491 27.362 124.817 29.144 122.477 29.144C121.199 29.144 120.245 28.604 119.633 27.74V32.312H118.013V20.72H119.633V22.016C120.245 21.134 121.199 20.594 122.477 20.594ZM122.261 27.614C123.863 27.614 124.907 26.462 124.907 24.878C124.907 23.276 123.863 22.124 122.261 22.124C120.677 22.124 119.633 23.276 119.633 24.878C119.633 26.462 120.677 27.614 122.261 27.614ZM134.972 20.72H136.592V29H134.972V27.722C134.36 28.604 133.406 29.144 132.128 29.144C129.788 29.144 128.114 27.326 128.114 24.86C128.114 22.358 129.788 20.594 132.128 20.594C133.406 20.594 134.36 21.134 134.972 21.998V20.72ZM132.344 27.614C133.928 27.614 134.972 26.444 134.972 24.86C134.972 23.258 133.928 22.124 132.344 22.124C130.742 22.124 129.698 23.258 129.698 24.86C129.698 26.444 130.742 27.614 132.344 27.614ZM144.497 20.72H146.189L141.581 32.312H139.979L141.293 29L138.035 20.72H139.727L142.103 26.75L144.497 20.72ZM157.1 20.594C158.612 20.594 160.178 21.422 160.178 23.906V29H158.558V24.122C158.558 22.538 157.514 22.016 156.632 22.016C155.732 22.016 154.724 22.538 154.724 24.122V29H153.104V24.122C153.104 22.538 152.06 22.016 151.16 22.016C150.278 22.016 149.252 22.538 149.252 24.122V29H147.632V20.72H149.252V21.71C149.846 20.936 150.746 20.594 151.628 20.594C152.672 20.594 153.752 20.99 154.31 22.052C154.94 20.972 156.074 20.594 157.1 20.594ZM166.179 20.576C168.591 20.576 170.157 22.394 170.157 24.86V25.328H163.641C163.803 26.804 164.847 27.758 166.287 27.758C167.475 27.758 168.231 27.218 168.627 26.642L169.761 27.452C169.041 28.496 167.799 29.162 166.287 29.162C163.767 29.162 162.075 27.326 162.075 24.86C162.075 22.394 163.695 20.576 166.179 20.576ZM166.179 21.872C164.757 21.872 163.839 22.826 163.641 24.266H168.645C168.447 22.88 167.565 21.872 166.179 21.872ZM176.224 20.594C177.826 20.594 179.5 21.512 179.5 23.906V29H177.88V24.14C177.88 22.61 176.8 21.98 175.756 21.98C174.73 21.98 173.668 22.61 173.668 24.14V29H172.048V20.72H173.668V21.728C174.298 20.918 175.27 20.594 176.224 20.594ZM185.716 21.962H183.79V26.642C183.79 27.542 184.366 27.704 184.942 27.704H185.626V29H184.312C182.926 29 182.17 28.226 182.17 26.876V21.962H181.036V20.72H182.17V18.182H183.79V20.72H185.716V21.962Z" fill="#3C4242"/>
</svg>
