<svg width="24" height="25" viewBox="0 0 24 25" fill="none" xmlns="http://www.w3.org/2000/svg">
<path d="M18.7096 7.70998C18.6166 7.61625 18.506 7.54186 18.3842 7.49109C18.2623 7.44032 18.1316 7.41418 17.9996 7.41418C17.8676 7.41418 17.7369 7.44032 17.615 7.49109C17.4931 7.54186 17.3825 7.61625 17.2896 7.70998L9.83958 15.17L6.70958 12.03C6.61306 11.9367 6.49912 11.8634 6.37427 11.8142C6.24941 11.765 6.11609 11.7409 5.98191 11.7432C5.84773 11.7455 5.71532 11.7743 5.59224 11.8278C5.46916 11.8812 5.35782 11.9585 5.26458 12.055C5.17134 12.1515 5.09803 12.2654 5.04883 12.3903C4.99962 12.5152 4.97549 12.6485 4.97781 12.7827C4.98014 12.9168 5.00886 13.0493 5.06236 13.1723C5.11585 13.2954 5.19306 13.4067 5.28958 13.5L9.12958 17.34C9.22255 17.4337 9.33315 17.5081 9.45501 17.5589C9.57687 17.6096 9.70757 17.6358 9.83958 17.6358C9.9716 17.6358 10.1023 17.6096 10.2242 17.5589C10.346 17.5081 10.4566 17.4337 10.5496 17.34L18.7096 9.17998C18.8111 9.08634 18.8921 8.97269 18.9475 8.84619C19.0029 8.71969 19.0315 8.58308 19.0315 8.44498C19.0315 8.30688 19.0029 8.17028 18.9475 8.04378C18.8921 7.91728 18.8111 7.80363 18.7096 7.70998Z" fill="black"/>
</svg>
